<svg fill="none" viewBox="0 -30 179 179" xmlns="http://www.w3.org/2000/svg">
    <mask fill="white" id="path-1-inside-1_2_7">
      <path fill-rule="evenodd" clip-rule="evenodd" d="m144.377,95.05l-54.877,-95.05l-77.5093,134.25l155.0183,0l-9.099,-15.761l-0.019,0.011l-18.528,0l-0.476,0l-98.2504,0l49.3634,-85.5l35.831,62.0607l0.04,-0.0229l-0.007,0.0122l18.513,0z" id="svg_1"></path>
    </mask>

    <g>
      <title>Impeccable</title>
      <path fill-rule="evenodd" clip-rule="evenodd" d="m144.377,95.05l-54.877,-95.05l-77.5093,134.25l155.0183,0l-9.099,-15.761l-0.019,0.011l-18.528,0l-0.476,0l-98.2504,0l49.3634,-85.5l35.831,62.0607l0.04,-0.0229l-0.007,0.0122l18.513,0z" fill="#191970" id="svg_2"></path>
      <path d="m89.5,0l0.866,-0.5l-0.866,-1.5l-0.866,1.5l0.866,0.5zm54.877,95.05l0,1l1.732,0l-0.866,-1.5l-0.866,0.5zm-132.3863,39.2l-0.866,-0.5l-0.866,1.5l1.732,0l0,-1zm155.0183,0l0,1l1.732,0l-0.866,-1.5l-0.866,0.5zm-9.099,-15.761l0.866,-0.5l-0.5,-0.866l-0.866,0.5l0.5,0.866zm-0.019,0.011l0,1l0.268,0l0.232,-0.134l-0.5,-0.866zm-117.2544,0l-0.8661,-0.5l-0.866,1.5l1.7321,0l0,-1zm49.3634,-85.5l0.866,-0.5l-0.866,-1.5l-0.866,1.5l0.866,0.5zm35.831,62.0607l-0.866,0.5l0.5,0.8661l0.866,-0.5l-0.5,-0.8661zm0.04,-0.0229l0.866,0.5001l1.74211,4.51015l-3.10811,-5.87635l0.5,0.8661zm-0.007,0.0122l-0.866,-0.5001l-0.867,1.5001l1.733,0l0,-1zm-37.23,-94.55l54.877,95.05l1.732,-1l-54.877,-95.05l-1.732,1zm-75.7773,134.25l77.5093,-134.25l-1.732,-1l-77.5093,134.25l1.732,1zm154.1523,-1.5l-155.0183,0l0,2l155.0183,0l0,-2zm-9.965,-14.261l9.099,15.761l1.732,-1l-9.099,-15.761l-1.732,1zm1.347,0.377l0.019,-0.011l-1,-1.732l-0.019,0.011l1,1.732zm-19.028,0.134l18.528,0l0,-2l-18.528,0l0,2zm-0.476,0l0.476,0l0,-2l-0.476,0l0,2zm-98.2504,0l98.2504,0l0,-2l-98.2504,0l0,2zm48.4974,-87l-49.3635,85.5l1.7321,1l49.3634,-85.5l-1.732,-1zm37.563,62.0607l-35.831,-62.0607l-1.732,1l35.831,62.0607l1.732,-1zm-1.326,-0.389l-0.04,0.023l1,1.7321l0.04,-0.023l-1,-1.7321zm1.358,1.3784l0.008,-0.0122l-1.732,-1.0003l-0.007,0.0123l1.731,1.0002zm17.648,-1.5001l-18.513,0l0,2l18.513,0l0,-2z" fill="white" mask="url(#path-1-inside-1_2_7)" id="svg_3"></path>
    </g>
  </svg>
